<svg xmlns="http://www.w3.org/2000/svg" viewBox="0 0 961.65 449.64"><defs><style>.cls-1{fill:#a8e0fb;}.cls-2{fill:#c93d06;}.cls-3{fill:#5c5963;}.cls-4{fill:#413f47;}.cls-5{fill:#f5570b;}.cls-6{fill:#312e37;}.cls-7{fill:#fff;}.cls-8{fill:#89d7f9;}.cls-9{fill:none;stroke:#c93d06;stroke-miterlimit:10;}.cls-10{fill:#c9c8cc;}.cls-11{fill:#6a6972;}.cls-12{fill:#85838c;}.cls-13{fill:#6ab0c6;}.cls-14,.cls-15{fill:#7ac1dd;}.cls-15{opacity:0.8;}</style></defs><title>Asset 1</title><g id="Layer_2" data-name="Layer 2"><g id="Layer_1-2" data-name="Layer 1"><g id="_Group_" data-name="&lt;Group&gt;"><rect id="_Path_" data-name="&lt;Path&gt;" class="cls-1" x="35.41" width="696.41" height="286.69"/><path id="_Path_2" data-name="&lt;Path&gt;" class="cls-2" d="M950.08,203.59s10.72,4.23,11.57,13v94.25l-11.85,13-21.45-27.09Z"/><rect id="_Path_3" data-name="&lt;Path&gt;" class="cls-3" x="15.52" y="285.98" width="932.3" height="77.88"/><rect id="_Path_4" data-name="&lt;Path&gt;" class="cls-4" x="15.52" y="351.45" width="932.3" height="12.42"/><rect id="_Path_5" data-name="&lt;Path&gt;" class="cls-3" x="15.52" y="309.12" width="13.19" height="85.5"/><path id="_Path_6" data-name="&lt;Path&gt;" class="cls-5" d="M911.87,100.88H747.48V290.8l74.92.12c49.1.85,64.54,36.26,64.54,36.26h63.14V203.59Z"/><polygon id="_Path_7" data-name="&lt;Path&gt;" class="cls-1" points="820.28 178.76 930.6 178.76 905.2 110.47 820.28 110.47 820.28 178.76"/><path id="_Path_8" data-name="&lt;Path&gt;" class="cls-2" d="M747.48,101H928.84c-7-26-34.63-30.9-34.63-30.9H747.48Z"/><circle id="_Path_9" data-name="&lt;Path&gt;" class="cls-6" cx="808.43" cy="377.97" r="71.67"/><path id="_Compound_Path_" data-name="&lt;Compound Path&gt;" class="cls-7" d="M808.43,331.13A46.84,46.84,0,1,0,855.27,378,46.84,46.84,0,0,0,808.43,331.13Zm0,84.37A37.53,37.53,0,1,1,846,378,37.53,37.53,0,0,1,808.43,415.5Z"/><circle id="_Path_10" data-name="&lt;Path&gt;" class="cls-3" cx="808.43" cy="377.97" r="37.53"/><circle id="_Path_11" data-name="&lt;Path&gt;" class="cls-7" cx="808.43" cy="377.97" r="15.66"/><circle id="_Path_12" data-name="&lt;Path&gt;" class="cls-6" cx="321.4" cy="377.97" r="71.67"/><path id="_Compound_Path_2" data-name="&lt;Compound Path&gt;" class="cls-7" d="M321.4,331.13A46.84,46.84,0,1,0,368.24,378,46.84,46.84,0,0,0,321.4,331.13Zm0,84.37A37.53,37.53,0,1,1,358.93,378,37.53,37.53,0,0,1,321.4,415.5Z"/><circle id="_Path_13" data-name="&lt;Path&gt;" class="cls-3" cx="321.4" cy="377.97" r="37.53"/><circle id="_Path_14" data-name="&lt;Path&gt;" class="cls-7" cx="321.4" cy="377.97" r="15.66"/><circle id="_Path_15" data-name="&lt;Path&gt;" class="cls-6" cx="133.47" cy="377.97" r="71.67"/><path id="_Compound_Path_3" data-name="&lt;Compound Path&gt;" class="cls-7" d="M133.47,331.13A46.84,46.84,0,1,0,180.31,378,46.84,46.84,0,0,0,133.47,331.13Zm0,84.37A37.53,37.53,0,1,1,171,378,37.53,37.53,0,0,1,133.47,415.5Z"/><circle id="_Path_16" data-name="&lt;Path&gt;" class="cls-3" cx="133.47" cy="377.97" r="37.53"/><circle id="_Path_17" data-name="&lt;Path&gt;" class="cls-7" cx="133.47" cy="377.97" r="15.66"/><path id="_Path_18" data-name="&lt;Path&gt;" class="cls-4" d="M808.43,291.9a86.16,86.16,0,0,0-86,83.25H736.9a71.58,71.58,0,0,1,143.06,0h14.47A86.16,86.16,0,0,0,808.43,291.9Z"/><path id="_Path_19" data-name="&lt;Path&gt;" class="cls-4" d="M321.4,291.9a86.16,86.16,0,0,0-86,83.25h14.47a71.58,71.58,0,0,1,143.06,0h14.47A86.16,86.16,0,0,0,321.4,291.9Z"/><path id="_Path_20" data-name="&lt;Path&gt;" class="cls-4" d="M133.47,291.9a86.16,86.16,0,0,0-86,83.25H61.94a71.58,71.58,0,0,1,143.06,0h14.47A86.16,86.16,0,0,0,133.47,291.9Z"/><polygon id="_Path_21" data-name="&lt;Path&gt;" class="cls-8" points="820.28 110.47 820.28 178.76 905.2 110.47 820.28 110.47"/><line id="_Path_22" data-name="&lt;Path&gt;" class="cls-9" x1="747.62" y1="253.25" x2="950.01" y2="253.25"/><line id="_Path_23" data-name="&lt;Path&gt;" class="cls-9" x1="806.17" y1="97.28" x2="806.17" y2="290.5"/><path id="_Path_24" data-name="&lt;Path&gt;" class="cls-7" d="M858,231.81c0-3.16-2.84-5.71-6.35-5.71H828.46c-3.51,0-6.35,2.56-6.35,5.71h0c0,3.16,2.84,5.71,6.35,5.71h23.15c3.51,0,6.35-2.56,6.35-5.71Z"/><path id="_Path_25" data-name="&lt;Path&gt;" class="cls-2" d="M793.33,114.35c0-1.87-2.1-3.39-4.7-3.39H767.2c-2.59,0-4.7,1.52-4.7,3.39v59.89c0,1.87,2.1,3.39,4.7,3.39h21.43c2.59,0,4.7-1.52,4.7-3.39Z"/><rect id="_Path_26" data-name="&lt;Path&gt;" class="cls-5" y="337.9" width="15.66" height="43.6"/><rect id="_Path_27" data-name="&lt;Path&gt;" class="cls-10" x="485.06" y="310.53" width="176.92" height="69.7"/><rect id="_Path_28" data-name="&lt;Path&gt;" class="cls-11" x="485.06" y="355.68" width="176.92" height="24.55"/><rect id="_Path_29" data-name="&lt;Path&gt;" class="cls-12" x="485.06" y="310.53" width="176.92" height="21.16"/><rect id="_Path_30" data-name="&lt;Path&gt;" class="cls-4" x="584.81" y="310.53" width="10.44" height="69.7"/><rect id="_Path_31" data-name="&lt;Path&gt;" class="cls-4" x="629.67" y="310.53" width="10.44" height="69.7"/><g id="_Group_2" data-name="&lt;Group&gt;"><g id="_Group_3" data-name="&lt;Group&gt;"><rect id="_Path_32" data-name="&lt;Path&gt;" class="cls-13" x="64.77" y="18.06" width="12.2" height="249.16"/><rect id="_Path_33" data-name="&lt;Path&gt;" class="cls-13" x="104.3" y="18.06" width="12.2" height="249.16"/><rect id="_Path_34" data-name="&lt;Path&gt;" class="cls-13" x="143.82" y="18.06" width="12.2" height="249.16"/><rect id="_Path_35" data-name="&lt;Path&gt;" class="cls-13" x="183.34" y="18.06" width="12.2" height="249.16"/><rect id="_Path_36" data-name="&lt;Path&gt;" class="cls-13" x="222.86" y="18.06" width="12.2" height="249.16"/><rect id="_Path_37" data-name="&lt;Path&gt;" class="cls-13" x="262.38" y="18.06" width="12.2" height="249.16"/><rect id="_Path_38" data-name="&lt;Path&gt;" class="cls-13" x="301.9" y="18.06" width="12.2" height="249.16"/><rect id="_Path_39" data-name="&lt;Path&gt;" class="cls-13" x="341.42" y="18.06" width="12.2" height="249.16"/><rect id="_Path_40" data-name="&lt;Path&gt;" class="cls-13" x="380.95" y="18.06" width="12.2" height="249.16"/><rect id="_Path_41" data-name="&lt;Path&gt;" class="cls-13" x="420.47" y="18.06" width="12.2" height="249.16"/><rect id="_Path_42" data-name="&lt;Path&gt;" class="cls-13" x="459.99" y="18.06" width="12.2" height="249.16"/><rect id="_Path_43" data-name="&lt;Path&gt;" class="cls-13" x="499.51" y="18.06" width="12.2" height="249.16"/><rect id="_Path_44" data-name="&lt;Path&gt;" class="cls-13" x="539.03" y="18.06" width="12.2" height="249.16"/><rect id="_Path_45" data-name="&lt;Path&gt;" class="cls-13" x="578.55" y="18.06" width="12.2" height="249.16"/><rect id="_Path_46" data-name="&lt;Path&gt;" class="cls-13" x="618.07" y="18.06" width="12.2" height="249.16"/><rect id="_Path_47" data-name="&lt;Path&gt;" class="cls-13" x="657.6" y="18.06" width="12.2" height="249.16"/><rect id="_Path_48" data-name="&lt;Path&gt;" class="cls-13" x="697.12" y="18.06" width="12.2" height="249.16"/></g><g id="_Group_4" data-name="&lt;Group&gt;"><rect id="_Path_49" data-name="&lt;Path&gt;" class="cls-14" x="60.89" y="18.06" width="12.2" height="249.16"/><rect id="_Path_50" data-name="&lt;Path&gt;" class="cls-14" x="100.41" y="18.06" width="12.2" height="249.16"/><rect id="_Path_51" data-name="&lt;Path&gt;" class="cls-14" x="139.93" y="18.06" width="12.2" height="249.16"/><rect id="_Path_52" data-name="&lt;Path&gt;" class="cls-14" x="179.46" y="18.06" width="12.2" height="249.16"/><rect id="_Path_53" data-name="&lt;Path&gt;" class="cls-14" x="218.98" y="18.06" width="12.2" height="249.16"/><rect id="_Path_54" data-name="&lt;Path&gt;" class="cls-14" x="258.5" y="18.06" width="12.2" height="249.16"/><rect id="_Path_55" data-name="&lt;Path&gt;" class="cls-14" x="298.02" y="18.06" width="12.2" height="249.16"/><rect id="_Path_56" data-name="&lt;Path&gt;" class="cls-14" x="337.54" y="18.06" width="12.2" height="249.16"/><rect id="_Path_57" data-name="&lt;Path&gt;" class="cls-14" x="377.06" y="18.06" width="12.2" height="249.16"/><rect id="_Path_58" data-name="&lt;Path&gt;" class="cls-14" x="416.58" y="18.06" width="12.2" height="249.16"/><rect id="_Path_59" data-name="&lt;Path&gt;" class="cls-14" x="456.11" y="18.06" width="12.2" height="249.16"/><rect id="_Path_60" data-name="&lt;Path&gt;" class="cls-14" x="495.63" y="18.06" width="12.2" height="249.16"/><rect id="_Path_61" data-name="&lt;Path&gt;" class="cls-14" x="535.15" y="18.06" width="12.2" height="249.16"/><rect id="_Path_62" data-name="&lt;Path&gt;" class="cls-14" x="574.67" y="18.06" width="12.2" height="249.16"/><rect id="_Path_63" data-name="&lt;Path&gt;" class="cls-14" x="614.19" y="18.06" width="12.2" height="249.16"/><rect id="_Path_64" data-name="&lt;Path&gt;" class="cls-14" x="653.71" y="18.06" width="12.2" height="249.16"/><rect id="_Path_65" data-name="&lt;Path&gt;" class="cls-14" x="693.23" y="18.06" width="12.2" height="249.16"/></g><polygon id="_Path_66" data-name="&lt;Path&gt;" class="cls-15" points="700.86 18.06 693.24 18.06 682.72 18.06 669.64 18.06 665.92 18.06 653.71 18.06 626.39 18.06 614.19 18.06 599.75 18.06 586.87 18.06 574.67 18.06 568.53 18.06 547.35 18.06 535.15 18.06 507.83 18.06 498.64 18.06 495.63 18.06 468.31 18.06 467.42 18.06 456.11 18.06 428.79 18.06 416.58 18.06 397.53 18.06 389.27 18.06 377.06 18.06 366.31 18.06 296.42 18.06 265.19 18.06 195.3 18.06 164.08 18.06 73.09 18.06 62.97 18.06 60.89 18.06 60.89 30.53 62.97 30.53 73.09 30.53 164.08 30.53 195.3 30.53 265.19 30.53 296.42 30.53 366.31 30.53 377.06 30.53 389.27 30.53 397.53 30.53 416.58 30.53 428.79 30.53 456.11 30.53 467.42 30.53 468.31 30.53 495.63 30.53 498.64 30.53 507.83 30.53 535.15 30.53 547.35 30.53 568.53 30.53 574.67 30.53 586.87 30.53 599.75 30.53 614.19 30.53 626.39 30.53 653.71 30.53 665.92 30.53 669.64 30.53 682.72 30.53 693.24 30.53 700.86 30.53 705.44 30.53 705.44 18.06 700.86 18.06"/></g><path id="_Path_67" data-name="&lt;Path&gt;" class="cls-14" d="M45.76,3.23A2.58,2.58,0,0,0,43.3,5.91v6.72a2.58,2.58,0,0,0,2.46,2.69h2.87a2.58,2.58,0,0,0,2.46-2.69V5.91a2.58,2.58,0,0,0-2.46-2.69Z"/><path id="_Path_68" data-name="&lt;Path&gt;" class="cls-14" d="M45.76,268.65a2.58,2.58,0,0,0-2.46,2.69v6.72a2.58,2.58,0,0,0,2.46,2.69h2.87a2.58,2.58,0,0,0,2.46-2.69v-6.72a2.58,2.58,0,0,0-2.46-2.69Z"/><path id="_Path_69" data-name="&lt;Path&gt;" class="cls-14" d="M719.4,3.23a2.58,2.58,0,0,0-2.46,2.69v6.72a2.58,2.58,0,0,0,2.46,2.69h2.87a2.58,2.58,0,0,0,2.46-2.69V5.91a2.58,2.58,0,0,0-2.46-2.69Z"/><path id="_Path_70" data-name="&lt;Path&gt;" class="cls-14" d="M719.4,268.65a2.58,2.58,0,0,0-2.46,2.69v6.72a2.58,2.58,0,0,0,2.46,2.69h2.87a2.58,2.58,0,0,0,2.46-2.69v-6.72a2.58,2.58,0,0,0-2.46-2.69Z"/></g></g></g></svg>